<svg xmlns="http://www.w3.org/2000/svg" version="1.1" xmlns:xlink="http://www.w3.org/1999/xlink" xmlns:svgjs="http://svgjs.dev/svgjs" width="1440" height="560" preserveAspectRatio="none" viewBox="0 0 1440 560">
    <g mask="url(&quot;#SvgjsMask1935&quot;)" fill="none">
        <rect width="1440" height="560" x="0" y="0" fill="url(&quot;#SvgjsLinearGradient1936&quot;)"></rect>
        <use xlink:href="#SvgjsSymbol1943" x="0" y="0"></use>
        <use xlink:href="#SvgjsSymbol1943" x="720" y="0"></use>
    </g>
    <defs>
        <mask id="SvgjsMask1935">
            <rect width="1440" height="560" fill="#ffffff"></rect>
        </mask>
        <linearGradient x1="0%" y1="50%" x2="100%" y2="50%" gradientUnits="userSpaceOnUse" id="SvgjsLinearGradient1936">
            <stop stop-color="#0e2a47" offset="0"></stop>
            <stop stop-color="rgba(56, 1, 105, 1)" offset="1"></stop>
        </linearGradient>
        <path d="M-1 0 a1 1 0 1 0 2 0 a1 1 0 1 0 -2 0z" id="SvgjsPath1941"></path>
        <path d="M-3 0 a3 3 0 1 0 6 0 a3 3 0 1 0 -6 0z" id="SvgjsPath1939"></path>
        <path d="M-5 0 a5 5 0 1 0 10 0 a5 5 0 1 0 -10 0z" id="SvgjsPath1938"></path>
        <path d="M2 -2 L-2 2z" id="SvgjsPath1940"></path>
        <path d="M6 -6 L-6 6z" id="SvgjsPath1937"></path>
        <path d="M30 -30 L-30 30z" id="SvgjsPath1942"></path>
    </defs>
    <symbol id="SvgjsSymbol1943">
        <use xlink:href="#SvgjsPath1937" x="30" y="30" stroke="rgba(86, 4, 136, 1)"></use>
        <use xlink:href="#SvgjsPath1938" x="30" y="90" stroke="rgba(86, 4, 136, 1)"></use>
        <use xlink:href="#SvgjsPath1937" x="30" y="150" stroke="rgba(86, 4, 136, 1)"></use>
        <use xlink:href="#SvgjsPath1939" x="30" y="210" stroke="rgba(86, 4, 136, 1)"></use>
        <use xlink:href="#SvgjsPath1938" x="30" y="270" stroke="rgba(86, 4, 136, 1)"></use>
        <use xlink:href="#SvgjsPath1937" x="30" y="330" stroke="rgba(86, 4, 136, 1)"></use>
        <use xlink:href="#SvgjsPath1937" x="30" y="390" stroke="rgba(67, 37, 189, 1)"></use>
        <use xlink:href="#SvgjsPath1937" x="30" y="450" stroke="rgba(86, 4, 136, 1)"></use>
        <use xlink:href="#SvgjsPath1939" x="30" y="510" stroke="rgba(67, 37, 189, 1)"></use>
        <use xlink:href="#SvgjsPath1940" x="30" y="570" stroke="rgba(67, 37, 189, 1)"></use>
        <use xlink:href="#SvgjsPath1937" x="90" y="30" stroke="rgba(86, 4, 136, 1)"></use>
        <use xlink:href="#SvgjsPath1937" x="90" y="90" stroke="rgba(67, 37, 189, 1)"></use>
        <use xlink:href="#SvgjsPath1941" x="90" y="150" stroke="rgba(86, 4, 136, 1)"></use>
        <use xlink:href="#SvgjsPath1940" x="90" y="210" stroke="rgba(67, 37, 189, 1)"></use>
        <use xlink:href="#SvgjsPath1940" x="90" y="270" stroke="rgba(67, 37, 189, 1)"></use>
        <use xlink:href="#SvgjsPath1938" x="90" y="330" stroke="rgba(86, 4, 136, 1)"></use>
        <use xlink:href="#SvgjsPath1940" x="90" y="390" stroke="rgba(86, 4, 136, 1)"></use>
        <use xlink:href="#SvgjsPath1938" x="90" y="450" stroke="rgba(86, 4, 136, 1)"></use>
        <use xlink:href="#SvgjsPath1938" x="90" y="510" stroke="rgba(67, 37, 189, 1)"></use>
        <use xlink:href="#SvgjsPath1939" x="90" y="570" stroke="rgba(86, 4, 136, 1)"></use>
        <use xlink:href="#SvgjsPath1940" x="150" y="30" stroke="rgba(86, 4, 136, 1)"></use>
        <use xlink:href="#SvgjsPath1942" x="150" y="90" stroke="rgba(86, 4, 136, 1)" stroke-width="3"></use>
        <use xlink:href="#SvgjsPath1937" x="150" y="150" stroke="rgba(67, 37, 189, 1)"></use>
        <use xlink:href="#SvgjsPath1937" x="150" y="210" stroke="rgba(67, 37, 189, 1)"></use>
        <use xlink:href="#SvgjsPath1940" x="150" y="270" stroke="rgba(86, 4, 136, 1)"></use>
        <use xlink:href="#SvgjsPath1937" x="150" y="330" stroke="rgba(86, 4, 136, 1)"></use>
        <use xlink:href="#SvgjsPath1938" x="150" y="390" stroke="rgba(67, 37, 189, 1)"></use>
        <use xlink:href="#SvgjsPath1940" x="150" y="450" stroke="rgba(86, 4, 136, 1)"></use>
        <use xlink:href="#SvgjsPath1937" x="150" y="510" stroke="rgba(67, 37, 189, 1)"></use>
        <use xlink:href="#SvgjsPath1937" x="150" y="570" stroke="rgba(67, 37, 189, 1)"></use>
        <use xlink:href="#SvgjsPath1937" x="210" y="30" stroke="rgba(67, 37, 189, 1)"></use>
        <use xlink:href="#SvgjsPath1937" x="210" y="90" stroke="rgba(86, 4, 136, 1)"></use>
        <use xlink:href="#SvgjsPath1938" x="210" y="150" stroke="rgba(86, 4, 136, 1)"></use>
        <use xlink:href="#SvgjsPath1939" x="210" y="210" stroke="rgba(67, 37, 189, 1)"></use>
        <use xlink:href="#SvgjsPath1940" x="210" y="270" stroke="rgba(67, 37, 189, 1)"></use>
        <use xlink:href="#SvgjsPath1940" x="210" y="330" stroke="rgba(86, 4, 136, 1)"></use>
        <use xlink:href="#SvgjsPath1938" x="210" y="390" stroke="rgba(86, 4, 136, 1)"></use>
        <use xlink:href="#SvgjsPath1938" x="210" y="450" stroke="rgba(67, 37, 189, 1)"></use>
        <use xlink:href="#SvgjsPath1937" x="210" y="510" stroke="rgba(86, 4, 136, 1)"></use>
        <use xlink:href="#SvgjsPath1937" x="210" y="570" stroke="rgba(86, 4, 136, 1)"></use>
        <use xlink:href="#SvgjsPath1938" x="270" y="30" stroke="rgba(86, 4, 136, 1)"></use>
        <use xlink:href="#SvgjsPath1938" x="270" y="90" stroke="rgba(86, 4, 136, 1)"></use>
        <use xlink:href="#SvgjsPath1941" x="270" y="150" stroke="rgba(67, 37, 189, 1)"></use>
        <use xlink:href="#SvgjsPath1938" x="270" y="210" stroke="rgba(67, 37, 189, 1)"></use>
        <use xlink:href="#SvgjsPath1937" x="270" y="270" stroke="rgba(67, 37, 189, 1)"></use>
        <use xlink:href="#SvgjsPath1937" x="270" y="330" stroke="rgba(67, 37, 189, 1)"></use>
        <use xlink:href="#SvgjsPath1937" x="270" y="390" stroke="rgba(86, 4, 136, 1)"></use>
        <use xlink:href="#SvgjsPath1937" x="270" y="450" stroke="rgba(86, 4, 136, 1)"></use>
        <use xlink:href="#SvgjsPath1938" x="270" y="510" stroke="rgba(67, 37, 189, 1)"></use>
        <use xlink:href="#SvgjsPath1941" x="270" y="570" stroke="rgba(67, 37, 189, 1)"></use>
        <use xlink:href="#SvgjsPath1939" x="330" y="30" stroke="rgba(67, 37, 189, 1)"></use>
        <use xlink:href="#SvgjsPath1937" x="330" y="90" stroke="rgba(86, 4, 136, 1)"></use>
        <use xlink:href="#SvgjsPath1941" x="330" y="150" stroke="rgba(86, 4, 136, 1)"></use>
        <use xlink:href="#SvgjsPath1937" x="330" y="210" stroke="rgba(67, 37, 189, 1)"></use>
        <use xlink:href="#SvgjsPath1940" x="330" y="270" stroke="rgba(67, 37, 189, 1)"></use>
        <use xlink:href="#SvgjsPath1937" x="330" y="330" stroke="rgba(67, 37, 189, 1)"></use>
        <use xlink:href="#SvgjsPath1937" x="330" y="390" stroke="rgba(86, 4, 136, 1)"></use>
        <use xlink:href="#SvgjsPath1938" x="330" y="450" stroke="rgba(67, 37, 189, 1)"></use>
        <use xlink:href="#SvgjsPath1940" x="330" y="510" stroke="rgba(86, 4, 136, 1)"></use>
        <use xlink:href="#SvgjsPath1938" x="330" y="570" stroke="rgba(86, 4, 136, 1)"></use>
        <use xlink:href="#SvgjsPath1940" x="390" y="30" stroke="rgba(86, 4, 136, 1)"></use>
        <use xlink:href="#SvgjsPath1942" x="390" y="90" stroke="rgba(67, 37, 189, 1)" stroke-width="3"></use>
        <use xlink:href="#SvgjsPath1938" x="390" y="150" stroke="rgba(86, 4, 136, 1)"></use>
        <use xlink:href="#SvgjsPath1938" x="390" y="210" stroke="rgba(67, 37, 189, 1)"></use>
        <use xlink:href="#SvgjsPath1937" x="390" y="270" stroke="rgba(67, 37, 189, 1)"></use>
        <use xlink:href="#SvgjsPath1937" x="390" y="330" stroke="rgba(67, 37, 189, 1)"></use>
        <use xlink:href="#SvgjsPath1938" x="390" y="390" stroke="rgba(67, 37, 189, 1)"></use>
        <use xlink:href="#SvgjsPath1940" x="390" y="450" stroke="rgba(67, 37, 189, 1)"></use>
        <use xlink:href="#SvgjsPath1937" x="390" y="510" stroke="rgba(67, 37, 189, 1)"></use>
        <use xlink:href="#SvgjsPath1942" x="390" y="570" stroke="rgba(67, 37, 189, 1)" stroke-width="3"></use>
        <use xlink:href="#SvgjsPath1938" x="450" y="30" stroke="rgba(67, 37, 189, 1)"></use>
        <use xlink:href="#SvgjsPath1938" x="450" y="90" stroke="rgba(67, 37, 189, 1)"></use>
        <use xlink:href="#SvgjsPath1937" x="450" y="150" stroke="rgba(67, 37, 189, 1)"></use>
        <use xlink:href="#SvgjsPath1937" x="450" y="210" stroke="rgba(67, 37, 189, 1)"></use>
        <use xlink:href="#SvgjsPath1940" x="450" y="270" stroke="rgba(67, 37, 189, 1)"></use>
        <use xlink:href="#SvgjsPath1937" x="450" y="330" stroke="rgba(86, 4, 136, 1)"></use>
        <use xlink:href="#SvgjsPath1937" x="450" y="390" stroke="rgba(67, 37, 189, 1)"></use>
        <use xlink:href="#SvgjsPath1941" x="450" y="450" stroke="rgba(67, 37, 189, 1)"></use>
        <use xlink:href="#SvgjsPath1941" x="450" y="510" stroke="rgba(86, 4, 136, 1)"></use>
        <use xlink:href="#SvgjsPath1939" x="450" y="570" stroke="rgba(67, 37, 189, 1)"></use>
        <use xlink:href="#SvgjsPath1938" x="510" y="30" stroke="rgba(67, 37, 189, 1)"></use>
        <use xlink:href="#SvgjsPath1939" x="510" y="90" stroke="rgba(67, 37, 189, 1)"></use>
        <use xlink:href="#SvgjsPath1938" x="510" y="150" stroke="rgba(86, 4, 136, 1)"></use>
        <use xlink:href="#SvgjsPath1941" x="510" y="210" stroke="rgba(67, 37, 189, 1)"></use>
        <use xlink:href="#SvgjsPath1938" x="510" y="270" stroke="rgba(67, 37, 189, 1)"></use>
        <use xlink:href="#SvgjsPath1938" x="510" y="330" stroke="rgba(86, 4, 136, 1)"></use>
        <use xlink:href="#SvgjsPath1940" x="510" y="390" stroke="rgba(67, 37, 189, 1)"></use>
        <use xlink:href="#SvgjsPath1939" x="510" y="450" stroke="rgba(67, 37, 189, 1)"></use>
        <use xlink:href="#SvgjsPath1937" x="510" y="510" stroke="rgba(86, 4, 136, 1)"></use>
        <use xlink:href="#SvgjsPath1937" x="510" y="570" stroke="rgba(86, 4, 136, 1)"></use>
        <use xlink:href="#SvgjsPath1937" x="570" y="30" stroke="rgba(67, 37, 189, 1)"></use>
        <use xlink:href="#SvgjsPath1938" x="570" y="90" stroke="rgba(67, 37, 189, 1)"></use>
        <use xlink:href="#SvgjsPath1940" x="570" y="150" stroke="rgba(67, 37, 189, 1)"></use>
        <use xlink:href="#SvgjsPath1937" x="570" y="210" stroke="rgba(86, 4, 136, 1)"></use>
        <use xlink:href="#SvgjsPath1939" x="570" y="270" stroke="rgba(67, 37, 189, 1)"></use>
        <use xlink:href="#SvgjsPath1937" x="570" y="330" stroke="rgba(86, 4, 136, 1)"></use>
        <use xlink:href="#SvgjsPath1937" x="570" y="390" stroke="rgba(86, 4, 136, 1)"></use>
        <use xlink:href="#SvgjsPath1940" x="570" y="450" stroke="rgba(86, 4, 136, 1)"></use>
        <use xlink:href="#SvgjsPath1938" x="570" y="510" stroke="rgba(67, 37, 189, 1)"></use>
        <use xlink:href="#SvgjsPath1937" x="570" y="570" stroke="rgba(67, 37, 189, 1)"></use>
        <use xlink:href="#SvgjsPath1937" x="630" y="30" stroke="rgba(86, 4, 136, 1)"></use>
        <use xlink:href="#SvgjsPath1937" x="630" y="90" stroke="rgba(67, 37, 189, 1)"></use>
        <use xlink:href="#SvgjsPath1938" x="630" y="150" stroke="rgba(67, 37, 189, 1)"></use>
        <use xlink:href="#SvgjsPath1938" x="630" y="210" stroke="rgba(86, 4, 136, 1)"></use>
        <use xlink:href="#SvgjsPath1938" x="630" y="270" stroke="rgba(67, 37, 189, 1)"></use>
        <use xlink:href="#SvgjsPath1941" x="630" y="330" stroke="rgba(86, 4, 136, 1)"></use>
        <use xlink:href="#SvgjsPath1937" x="630" y="390" stroke="rgba(86, 4, 136, 1)"></use>
        <use xlink:href="#SvgjsPath1938" x="630" y="450" stroke="rgba(86, 4, 136, 1)"></use>
        <use xlink:href="#SvgjsPath1938" x="630" y="510" stroke="rgba(86, 4, 136, 1)"></use>
        <use xlink:href="#SvgjsPath1939" x="630" y="570" stroke="rgba(67, 37, 189, 1)"></use>
        <use xlink:href="#SvgjsPath1940" x="690" y="30" stroke="rgba(86, 4, 136, 1)"></use>
        <use xlink:href="#SvgjsPath1937" x="690" y="90" stroke="rgba(86, 4, 136, 1)"></use>
        <use xlink:href="#SvgjsPath1939" x="690" y="150" stroke="rgba(86, 4, 136, 1)"></use>
        <use xlink:href="#SvgjsPath1937" x="690" y="210" stroke="rgba(86, 4, 136, 1)"></use>
        <use xlink:href="#SvgjsPath1938" x="690" y="270" stroke="rgba(67, 37, 189, 1)"></use>
        <use xlink:href="#SvgjsPath1941" x="690" y="330" stroke="rgba(86, 4, 136, 1)"></use>
        <use xlink:href="#SvgjsPath1940" x="690" y="390" stroke="rgba(86, 4, 136, 1)"></use>
        <use xlink:href="#SvgjsPath1939" x="690" y="450" stroke="rgba(67, 37, 189, 1)"></use>
        <use xlink:href="#SvgjsPath1941" x="690" y="510" stroke="rgba(86, 4, 136, 1)"></use>
        <use xlink:href="#SvgjsPath1939" x="690" y="570" stroke="rgba(86, 4, 136, 1)"></use>
    </symbol>
</svg>